<?xml version="1.0"?>
<svg width="4817" height="576" xmlns="http://www.w3.org/2000/svg" xmlns:svg="http://www.w3.org/2000/svg">
 <g class="layer">
  <path d="m1680.4,0l100.06,0l0,45.76l0,124.03l0,223.31l-100.06,0l0,-393.1z" fill="#EBFD4A" id="svg_1"/>
  <path d="m1909.24,0l106.02,0l0,45.76l0,124.03l0,223.31l-106.02,0l0,-268.98l0,-124.12z" fill="#EBFD4A" id="svg_2"/>
  <path d="m2142.24,0l103.43,0l0,393.1l-103.43,0l0,-268.98l0,-124.12z" fill="#EBFD4A" id="svg_3"/>
  <path d="m2245.67,409.16l29.58,102.42l-239.08,63.59l-29.58,-102.42l239.08,-63.59z" fill="#EBFD4A" id="svg_4"/>
  <path d="m1915.44,-2.1l-0.06,126.22l-140.31,45.67l0,-124.03l140.37,-47.86z" fill="#EBFD4A" id="svg_5"/>
  <path d="m2148.04,-2.1l0.34,126.22l-139.27,45.67l0,-124.03l138.94,-47.86z" fill="#EBFD4A" id="svg_6"/>
  <path d="m281.89,2.8c100.44,0 188.67,61.84 188.67,193.26c0,131.41 -88.23,193.26 -188.67,193.26l-281.89,0l0,-386.52l281.89,0zm-37.73,303.14c75.46,0 126.51,-16.01 126.51,-109.88c0,-93.87 -51.05,-109.89 -126.51,-109.89l-144.28,0l0,219.77l144.28,0z" fill="white" id="svg_7"/>
  <path d="m606.55,2.8l0,386.52l-99.88,0l0,-386.52l99.88,0z" fill="white" id="svg_8"/>
  <path d="m1086.48,2.8l0,83.37l-295.21,219.77l295.21,0l0,83.38l-438.37,0l0,-83.38l294.65,-219.77l-294.65,0l0,-83.37l438.37,0z" fill="white" id="svg_9"/>
  <path d="m1329.41,262.32l-219.74,-259.52l120.42,0l149.27,176.14l149.26,-176.14l120.42,0l-219.74,259.52l0,127l-99.89,0l0,-127z" fill="white" id="svg_10"/>
  <path d="m2731.66,389.32l-41.62,-82.28l-232.5,0l-41.62,82.28l-109.87,0l200.32,-386.52l134.84,0l200.87,386.52l-110.42,0zm-236.94,-156.27l158.14,0l-78.79,-156.81l-79.35,156.81z" fill="white" id="svg_11"/>
  <path d="m3319.87,144.7c0,62.95 -32.19,109.33 -84.35,129.76l71.58,114.86l-117.63,0l-62.71,-103.26l-160.92,0l0,103.26l-99.88,0l0,-386.52l305.19,0c88.23,0 148.72,55.77 148.72,141.9zm-354.03,-58.53l0,116.51l177.57,0c29.96,0 76.58,0 76.58,-57.98c0,-58.53 -46.62,-58.53 -76.58,-58.53l-177.57,0z" fill="white" id="svg_12"/>
  <path d="m3880.85,2.8l-235.28,171.72l235.28,214.8l-138.17,0l-170.91,-160.69l-119.31,86.69l0,74l-99.88,0l0,-386.52l99.88,0l0,200.43l276.9,-200.43l151.49,0z" fill="white" id="svg_13"/>
  <path d="m4312.15,81.76l-310.75,0l0,78.4l310.75,0l0,71.79l-310.75,0l0,78.41l310.75,0l0,78.96l-410.63,0l0,-386.52l410.63,0l0,78.96z" fill="white" id="svg_14"/>
  <path d="m4817,2.8l0,83.37l-188.67,0l0,303.15l-99.88,0l0,-303.15l-188.66,0l0,-83.37l477.21,0z" fill="white" id="svg_15"/>
 </g>
</svg>